<svg xmlns="http://www.w3.org/2000/svg" width="85.092" height="38.356" viewBox="0 0 85.092 38.356">
  <g id="Groupe_334" data-name="Groupe 334" transform="translate(0)">
    <g id="Groupe_1" data-name="Groupe 1" transform="translate(0 23.191)">
      <path id="Tracé_1" data-name="Tracé 1" d="M79.554,137.773H64.6v-14.96l3.815,3.812v7.333h7.337Z" transform="translate(-64.599 -122.812)" fill="#fff"/>
    </g>
    <g id="Groupe_2" data-name="Groupe 2" transform="translate(23.197 23.191)">
      <path id="Tracé_2" data-name="Tracé 2" d="M146.393,137.773h14.954v-14.96l-3.815,3.812v7.333H150.2Z" transform="translate(-146.393 -122.812)" fill="#fff"/>
    </g>
    <g id="Groupe_3" data-name="Groupe 3" transform="translate(0 0)">
      <path id="Tracé_3" data-name="Tracé 3" d="M79.554,41.04H64.6V56l3.815-3.812V44.855h7.337Z" transform="translate(-64.599 -41.04)" fill="#ec7116"/>
    </g>
    <g id="Groupe_4" data-name="Groupe 4" transform="translate(23.197 0)">
      <path id="Tracé_4" data-name="Tracé 4" d="M146.393,41.04h14.954V56l-3.815-3.812V44.855H150.2Z" transform="translate(-146.393 -41.04)" fill="#fff"/>
    </g>
    <path id="Tracé_5" data-name="Tracé 5" d="M126.285,142.974c0-1.957-.024-2.382-.488-2.651a11.166,11.166,0,0,0-3.423-1.3,11.154,11.154,0,0,0-3.42,1.3c-.463.269-.487.694-.487,2.651s3.29,2.405,3.912,2.405,3.906-.451,3.906-2.405" transform="translate(-103.19 -111.234)" fill="#fff"/>
    <path id="Tracé_6" data-name="Tracé 6" d="M110.184,65.156c-2.51-.71-7.519,1.726-7.525,1.726s-5.015-2.436-7.525-1.726c-4.1,1.435-5.944,5.729-1.94,10.609a6.474,6.474,0,0,1,1.668,4.9,6.666,6.666,0,0,0,.895,3.53c.258.364,1.617,2.333,3.183,1.749s1.963-.761,2.825-1.16,1.022-2.78-1.516-3.527c-.686-.234-1.1-1.372-.44-1.5a11.943,11.943,0,0,1,2.85-.485,11.943,11.943,0,0,1,2.849.485c.658.131.246,1.269-.44,1.5-2.538.747-2.379,3.129-1.516,3.527s1.259.577,2.826,1.16,2.925-1.385,3.183-1.749a6.666,6.666,0,0,0,.894-3.53,6.474,6.474,0,0,1,1.668-4.9C116.128,70.885,114.286,66.591,110.184,65.156Zm-15.348,6.17c2.793-1.931,4.505,2.626,4.505,2.626A4.045,4.045,0,0,1,94.836,71.325Zm11.141,2.626s1.712-4.557,4.505-2.626A4.045,4.045,0,0,1,105.977,73.952Z" transform="translate(-83.487 -58.224)" fill="#fff"/>
    <g id="Groupe_5" data-name="Groupe 5" transform="translate(42.785 27.952)">
      <path id="Tracé_7" data-name="Tracé 7" d="M215.459,139.6h1c.694,0,1.155.385,1.155.921v.245a.867.867,0,0,1-.525.793.945.945,0,0,1,.642.9v.227a1.026,1.026,0,0,1-1.149.991h-1.12Zm.432.356V141.4h.548c.461,0,.741-.251.741-.6v-.269c0-.332-.28-.577-.741-.577Zm0,1.8v1.569h.671a.658.658,0,0,0,.74-.642v-.269a.664.664,0,0,0-.74-.659Z" transform="translate(-215.459 -139.602)" fill="#ec7116"/>
      <path id="Tracé_8" data-name="Tracé 8" d="M225.269,143.846a1,1,0,0,1,1.994,0v.846h-1.592v.577a.6.6,0,0,0,1.19,0v-.146h.4v.111a1,1,0,0,1-1.994,0Zm.4-.035v.548h1.19v-.548a.6.6,0,0,0-1.19,0Z" transform="translate(-222.487 -142.003)" fill="#ec7116"/>
      <path id="Tracé_9" data-name="Tracé 9" d="M235.295,143.684h-.082a.661.661,0,0,1-.752-.653V139.6h.4v3.429a.311.311,0,0,0,.356.321h.082Z" transform="translate(-229.072 -139.602)" fill="#ec7116"/>
      <path id="Tracé_10" data-name="Tracé 10" d="M238.171,140.593v-.3a.69.69,0,0,1,.775-.688h.239v.332h-.239c-.227,0-.373.111-.373.321v.338h.612v.332h-.612v2.759h-.4v-2.759h-.5v-.332Z" transform="translate(-231.37 -139.602)" fill="#ec7116"/>
      <path id="Tracé_11" data-name="Tracé 11" d="M245.206,146.126a.907.907,0,0,1-1-.892v-1.388a1,1,0,0,1,1.994,0v1.388A.907.907,0,0,1,245.206,146.126Zm.6-2.315a.6.6,0,0,0-1.19,0v1.458a.6.6,0,0,0,1.19,0Z" transform="translate(-236.055 -142.003)" fill="#ec7116"/>
      <path id="Tracé_12" data-name="Tracé 12" d="M253.9,146.085h-.4v-3.091h.4v.379a1.11,1.11,0,0,1,.852-.42v.356c-.49,0-.852.274-.852.659Z" transform="translate(-242.714 -142.003)" fill="#ec7116"/>
      <path id="Tracé_13" data-name="Tracé 13" d="M260.328,144.494H260.1a.707.707,0,0,1-.793-.677v-2.082h-.56V141.4h.56v-.67h.4v.67h.618v.332h-.618v2.082a.351.351,0,0,0,.391.344h.227Z" transform="translate(-246.471 -140.412)" fill="#ec7116"/>
      <path id="Tracé_14" data-name="Tracé 14" d="M215.459,165.831v-4.082h.362l1.067,2.653,1.079-2.653h.356v4.082h-.391v-3.038l-.922,2.274h-.239l-.921-2.28v3.044Z" transform="translate(-215.459 -155.468)" fill="#ec7116"/>
      <path id="Tracé_15" data-name="Tracé 15" d="M228.981,168.273a.907.907,0,0,1-1-.892v-1.388a1,1,0,0,1,1.994,0v1.388A.907.907,0,0,1,228.981,168.273Zm.6-2.315a.6.6,0,0,0-1.19,0v1.458a.6.6,0,0,0,1.19,0Z" transform="translate(-224.432 -157.869)" fill="#ec7116"/>
      <path id="Tracé_16" data-name="Tracé 16" d="M237.675,168.232h-.4v-3.091h.4v.286a.991.991,0,0,1,.735-.327.769.769,0,0,1,.828.8v2.327h-.4V165.9c0-.286-.233-.473-.566-.473a.53.53,0,0,0-.595.508Z" transform="translate(-231.09 -157.869)" fill="#ec7116"/>
      <path id="Tracé_17" data-name="Tracé 17" d="M246.982,166.641h-.227a.708.708,0,0,1-.793-.677v-2.082h-.56v-.332h.56v-.671h.4v.671h.618v.332h-.618v2.082a.351.351,0,0,0,.391.344h.227Z" transform="translate(-236.91 -156.278)" fill="#ec7116"/>
      <path id="Tracé_18" data-name="Tracé 18" d="M253.03,161.749h.4v1.277a.991.991,0,0,1,.735-.327.769.769,0,0,1,.828.8v1.563a.769.769,0,0,1-.828.8.986.986,0,0,1-.735-.321v.28h-.4Zm1.557,3.318V163.5c0-.286-.233-.472-.565-.472a.53.53,0,0,0-.6.508v1.493a.534.534,0,0,0,.6.513A.5.5,0,0,0,254.587,165.067Z" transform="translate(-242.375 -155.468)" fill="#ec7116"/>
      <path id="Tracé_19" data-name="Tracé 19" d="M262.038,163.386a1,1,0,0,1,1.994,0v.845H262.44v.577a.6.6,0,0,0,1.19,0v-.146h.4v.111a1,1,0,0,1-1.994,0Zm.4-.035v.548h1.19v-.548a.6.6,0,0,0-1.19,0Zm.968-1.889.181.245-.939.467-.088-.128Z" transform="translate(-248.828 -155.262)" fill="#ec7116"/>
      <path id="Tracé_20" data-name="Tracé 20" d="M272.063,165.831h-.082a.662.662,0,0,1-.752-.653v-3.429h.4v3.429a.311.311,0,0,0,.356.321h.082Z" transform="translate(-255.412 -155.468)" fill="#ec7116"/>
      <path id="Tracé_21" data-name="Tracé 21" d="M275.61,161.851h.4v.484h-.4Zm0,.962h.4V165.9h-.4Z" transform="translate(-258.551 -155.541)" fill="#ec7116"/>
      <path id="Tracé_22" data-name="Tracé 22" d="M279.2,166.15v-.157a.968.968,0,0,1,1.93,0v2.239h-.4v-.3a1.03,1.03,0,0,1-.758.338.74.74,0,0,1-.8-.776v-.21c0-.49.4-.775.974-.811l.589-.035v-.484a.567.567,0,0,0-1.132,0v.193Zm1.534,1.306v-.688l-.578.041c-.379.023-.583.193-.583.455v.233c0,.269.21.45.548.45A.554.554,0,0,0,280.73,167.456Z" transform="translate(-261.099 -157.869)" fill="#ec7116"/>
      <path id="Tracé_23" data-name="Tracé 23" d="M288.859,168.232h-.4v-3.091h.4v.379a1.111,1.111,0,0,1,.852-.42v.356c-.49,0-.852.274-.852.659Z" transform="translate(-267.759 -157.869)" fill="#ec7116"/>
      <path id="Tracé_24" data-name="Tracé 24" d="M295.7,165.831v-.28a.981.981,0,0,1-.729.321.793.793,0,0,1-.834-.834v-1.5a.793.793,0,0,1,.834-.834.986.986,0,0,1,.729.327v-1.277h.4v4.082Zm0-.8v-1.493a.527.527,0,0,0-.589-.508.521.521,0,0,0-.572.5v1.5a.525.525,0,0,0,.572.508A.532.532,0,0,0,295.7,165.032Z" transform="translate(-271.825 -155.468)" fill="#ec7116"/>
    </g>
    <g id="Groupe_6" data-name="Groupe 6" transform="translate(42.4 0.402)">
      <path id="Tracé_25" data-name="Tracé 25" d="M216.925,48.36a2.632,2.632,0,0,1-2.821-2.843,2.734,2.734,0,0,1,2.767-2.983,2.545,2.545,0,0,1,2.379,1.389l-1.346.7c-.3-.581-.6-.786-.991-.786-.818,0-1.1.808-1.1,1.659s.334,1.55,1.2,1.55a1.161,1.161,0,0,0,.98-.689l1.281.721A2.534,2.534,0,0,1,216.925,48.36Z" transform="translate(-214.104 -42.513)" fill="#fff"/>
      <path id="Tracé_26" data-name="Tracé 26" d="M239.335,48.235h-1.626l-.032-.538a2.722,2.722,0,0,1-1.6.657,1.77,1.77,0,0,1-1.884-1.744,1.748,1.748,0,0,1,1.249-1.594,5.7,5.7,0,0,1,2.207-.28c-.011-.592-.172-.948-.829-.948a1.994,1.994,0,0,0-1.378.635l-1.077-.948a3.493,3.493,0,0,1,2.52-.98,2.158,2.158,0,0,1,2.455,2.251ZM237.666,45.8c-.528,0-1.841.054-1.841.807a.553.553,0,0,0,.592.538,1.888,1.888,0,0,0,1.249-.538Z" transform="translate(-228.492 -42.486)" fill="#fff"/>
      <path id="Tracé_27" data-name="Tracé 27" d="M262.294,48.525l.01-3.392-1.464,2.552H259.6l-1.357-2.5.011,3.338h-1.669v-5.61h2.089l1.593,2.972,1.6-2.972h2.089v5.61Z" transform="translate(-244.539 -42.786)" fill="#fff"/>
      <path id="Tracé_28" data-name="Tracé 28" d="M290.095,46.651l-1.238.011v1.906h-1.669V42.99h2.821c.215,0,.442,0,.657.022a1.761,1.761,0,0,1,1.691,1.809C292.356,46.177,291.29,46.64,290.095,46.651Zm-.108-2.476h-1.13v1.259h1.13a.632.632,0,1,0,0-1.259Z" transform="translate(-266.46 -42.839)" fill="#fff"/>
      <path id="Tracé_29" data-name="Tracé 29" d="M311.913,48.589l-.054-.764c-.14.1-.269.194-.409.291a2.688,2.688,0,0,1-1.529.581c-1.184,0-1.55-.539-1.55-1.669V42.99h1.669c0,1.3-.011,2.595-.011,3.9,0,.334.1.474.442.474.42,0,1.055-.571,1.389-.829V42.99h1.669v5.6Z" transform="translate(-281.637 -42.839)" fill="#fff"/>
      <path id="Tracé_30" data-name="Tracé 30" d="M332.13,48.349a3.589,3.589,0,0,1-2.5-.969l1.034-.991a2.038,2.038,0,0,0,1.411.667c.237,0,.754-.064.754-.4,0-.355-.862-.5-1.648-.829a1.749,1.749,0,0,1-1.281-1.572c0-1.217,1.206-1.8,2.272-1.8a3.6,3.6,0,0,1,2.218.764l-.894,1.055a2.143,2.143,0,0,0-1.335-.549c-.215,0-.635.107-.635.388,0,.355.743.474,1.486.754.721.28,1.432.711,1.432,1.68C334.445,47.8,333.217,48.349,332.13,48.349Z" transform="translate(-296.868 -42.459)" fill="#fff"/>
      <path id="Tracé_31" data-name="Tracé 31" d="M220.836,81.428l.011-3.392-1.465,2.552h-1.238l-1.357-2.5.011,3.338h-1.669v-5.61h2.089l1.594,2.972,1.6-2.972H222.5v5.61Z" transform="translate(-214.838 -66.357)" fill="#fff"/>
      <path id="Tracé_32" data-name="Tracé 32" d="M247.623,75.068a2.9,2.9,0,0,1-.151-5.8,2.494,2.494,0,0,1,2.627,2.713,3.445,3.445,0,0,1-.032.571h-3.65a1.27,1.27,0,0,0,1.206,1.238,2.108,2.108,0,0,0,1.4-.71l1.109.98A3.479,3.479,0,0,1,247.623,75.068Zm-.14-4.576a.993.993,0,0,0-1.023.98H248.5A.971.971,0,0,0,247.483,70.492Zm-.215-1.518-.8-.818,1.992-1.335,1.033,1.055Z" transform="translate(-236.026 -59.911)" fill="#fff"/>
      <path id="Tracé_33" data-name="Tracé 33" d="M268.253,77.239v4.242h-1.669V77.239l-1.874.011V75.893h5.416V77.25Z" transform="translate(-250.359 -66.411)" fill="#fff"/>
      <path id="Tracé_34" data-name="Tracé 34" d="M289.463,81.455l-1.2-2.132h-.894v2.132H285.7v-5.6h2.8c.216,0,.431,0,.646.01.991.086,1.766.6,1.766,1.68a1.616,1.616,0,0,1-.958,1.486l1.389,2.423Zm-1.023-4.4h-1.066v1.055h1.044c.366,0,.818-.043.818-.528S288.828,77.051,288.44,77.051Z" transform="translate(-265.399 -66.385)" fill="#fff"/>
      <path id="Tracé_35" data-name="Tracé 35" d="M310.248,81.225a2.913,2.913,0,1,1,2.939-2.907A2.761,2.761,0,0,1,310.248,81.225Zm0-4.565c-.948,0-1.249.851-1.249,1.658s.3,1.647,1.249,1.647,1.249-.84,1.249-1.647S311.2,76.66,310.248,76.66Z" transform="translate(-280.875 -66.058)" fill="#fff"/>
      <path id="Tracé_36" data-name="Tracé 36" d="M338.782,84.177V82.842h3.295v1.335Z" transform="translate(-303.423 -71.389)" fill="#fff"/>
      <path id="Tracé_37" data-name="Tracé 37" d="M218.036,112.458l-1.238.011v1.906h-1.669V108.8h2.821c.215,0,.441,0,.657.022a1.761,1.761,0,0,1,1.691,1.809C220.3,111.984,219.232,112.447,218.036,112.458Zm-.108-2.476H216.8v1.259h1.13a.632.632,0,1,0,0-1.259Z" transform="translate(-214.838 -89.983)" fill="#fff"/>
      <path id="Tracé_38" data-name="Tracé 38" d="M238.342,114.128a2.913,2.913,0,1,1,2.94-2.907A2.76,2.76,0,0,1,238.342,114.128Zm0-4.565c-.948,0-1.249.851-1.249,1.658s.3,1.647,1.249,1.647,1.249-.84,1.249-1.647S239.29,109.563,238.342,109.563Z" transform="translate(-229.362 -89.629)" fill="#fff"/>
      <path id="Tracé_39" data-name="Tracé 39" d="M259.662,114.331v-5.61h1.658L261.309,113l2.778-.022v1.357Z" transform="translate(-246.742 -89.929)" fill="#fff"/>
      <path id="Tracé_40" data-name="Tracé 40" d="M276.1,114.385v-1.346l1.066.011v-2.918l-1,.011V108.8h3.6v1.346l-1-.011v2.918l1.077-.011v1.346Z" transform="translate(-258.518 -89.983)" fill="#fff"/>
      <path id="Tracé_41" data-name="Tracé 41" d="M293.007,110.143v4.242h-1.669v-4.242l-1.874.011V108.8h5.416v1.357Z" transform="translate(-268.092 -89.983)" fill="#fff"/>
      <path id="Tracé_42" data-name="Tracé 42" d="M314.544,114.042h-1.626l-.032-.539a2.722,2.722,0,0,1-1.6.657,1.771,1.771,0,0,1-1.884-1.744,1.748,1.748,0,0,1,1.249-1.594,5.7,5.7,0,0,1,2.208-.28c-.011-.592-.172-.947-.829-.947a2,2,0,0,0-1.378.635l-1.077-.947a3.493,3.493,0,0,1,2.52-.98,2.158,2.158,0,0,1,2.455,2.251Zm-1.669-2.434c-.528,0-1.841.054-1.841.808a.553.553,0,0,0,.592.538,1.888,1.888,0,0,0,1.249-.538Z" transform="translate(-282.372 -89.629)" fill="#fff"/>
      <path id="Tracé_43" data-name="Tracé 43" d="M330.087,114.385v-1.346l1.066.011v-2.918l-1,.011V108.8h3.6v1.346l-1-.011v2.918l1.077-.011v1.346Z" transform="translate(-297.194 -89.983)" fill="#fff"/>
      <path id="Tracé_44" data-name="Tracé 44" d="M349.694,114.086V110.4c0-.388-.011-.646-.5-.646a2.49,2.49,0,0,0-1.421.754v3.575h-1.669V108.5h1.615l.022.8a3.339,3.339,0,0,1,2.229-.915,1.248,1.248,0,0,1,1.389,1.271v4.436Z" transform="translate(-308.672 -89.684)" fill="#fff"/>
    </g>
  </g>
</svg>
